<svg id="svg" version="1.1" width="400" height="400" xmlns="http://www.w3.org/2000/svg" xmlns:xlink="http://www.w3.org/1999/xlink" style="display: block;"><g id="svgg"><path id="path0" d="" stroke="none" fill="#000000" fill-rule="evenodd"></path><path id="path1" d="" stroke="none" fill="#003399" fill-rule="evenodd"></path><path id="path2" d="" stroke="none" fill="#333399" fill-rule="evenodd"></path><path id="path3" d="" stroke="none" fill="#005555" fill-rule="evenodd"></path><path id="path4" d="M196.400 146.600 C 195.992 147.091,196.020 147.200,196.551 147.200 C 196.908 147.200,197.200 146.930,197.200 146.600 C 197.200 146.270,197.132 146.000,197.049 146.000 C 196.966 146.000,196.674 146.270,196.400 146.600 M124.000 162.951 C 124.000 163.034,124.270 163.326,124.600 163.600 C 125.091 164.008,125.200 163.980,125.200 163.449 C 125.200 163.092,124.930 162.800,124.600 162.800 C 124.270 162.800,124.000 162.868,124.000 162.951 M126.000 164.951 C 126.000 165.034,126.270 165.326,126.600 165.600 C 127.091 166.008,127.200 165.980,127.200 165.449 C 127.200 165.092,126.930 164.800,126.600 164.800 C 126.270 164.800,126.000 164.868,126.000 164.951 M234.400 206.600 C 233.992 207.091,234.020 207.200,234.551 207.200 C 234.908 207.200,235.200 206.930,235.200 206.600 C 235.200 206.270,235.132 206.000,235.049 206.000 C 234.966 206.000,234.674 206.270,234.400 206.600 M208.400 234.600 C 207.992 235.091,208.020 235.200,208.551 235.200 C 208.908 235.200,209.200 234.930,209.200 234.600 C 209.200 234.270,209.132 234.000,209.049 234.000 C 208.966 234.000,208.674 234.270,208.400 234.600 M216.476 269.447 C 216.832 269.803,217.321 269.973,217.562 269.824 C 218.356 269.333,218.019 268.800,216.914 268.800 C 215.914 268.800,215.879 268.851,216.476 269.447 " stroke="none" fill="#0000ff" fill-rule="evenodd"></path><path id="path5" d="" stroke="none" fill="#246db6" fill-rule="evenodd"></path><path id="path6" d="" stroke="none" fill="#0055ff" fill-rule="evenodd"></path><path id="path7" d="" stroke="none" fill="#5555ff" fill-rule="evenodd"></path><path id="path8" d="" stroke="none" fill="#3b89b1" fill-rule="evenodd"></path><path id="path9" d="" stroke="none" fill="#1c8ec6" fill-rule="evenodd"></path><path id="path10" d="" stroke="none" fill="#009999" fill-rule="evenodd"></path><path id="path11" d="" stroke="none" fill="#339999" fill-rule="evenodd"></path><path id="path12" d="" stroke="none" fill="#46a2a2" fill-rule="evenodd"></path><path id="path13" d="M37.600 165.943 C 37.600 166.354,38.812 166.922,39.092 166.642 C 39.189 166.544,38.893 166.264,38.434 166.018 C 37.975 165.773,37.600 165.739,37.600 165.943 M76.000 201.102 C 76.000 201.322,76.270 201.726,76.600 202.000 C 76.935 202.278,77.200 202.321,77.200 202.098 C 77.200 201.878,76.930 201.474,76.600 201.200 C 76.265 200.922,76.000 200.879,76.000 201.102 M261.082 221.907 L 260.903 222.843 261.851 221.952 C 262.988 220.884,262.972 220.971,262.030 220.971 C 261.541 220.971,261.195 221.312,261.082 221.907 M255.802 227.998 C 255.403 228.439,255.262 228.800,255.489 228.800 C 255.992 228.800,256.990 227.657,256.721 227.388 C 256.615 227.282,256.202 227.556,255.802 227.998 M198.000 253.102 C 198.000 253.322,198.270 253.726,198.600 254.000 C 198.935 254.278,199.200 254.321,199.200 254.098 C 199.200 253.878,198.930 253.474,198.600 253.200 C 198.265 252.922,198.000 252.879,198.000 253.102 M229.802 255.998 C 229.403 256.439,229.262 256.800,229.489 256.800 C 229.992 256.800,230.990 255.657,230.721 255.388 C 230.615 255.282,230.202 255.556,229.802 255.998 " stroke="none" fill="#3d9ece" fill-rule="evenodd"></path><path id="path14" d="" stroke="none" fill="#17a2d1" fill-rule="evenodd"></path><path id="path15" d="" stroke="none" fill="#2da5c3" fill-rule="evenodd"></path><path id="path16" d="" stroke="none" fill="#0099ff" fill-rule="evenodd"></path><path id="path17" d="" stroke="none" fill="#3399ff" fill-rule="evenodd"></path><path id="path18" d="" stroke="none" fill="#24b6b6" fill-rule="evenodd"></path><path id="path19" d="M135.822 131.635 C 135.946 131.836,135.671 132.000,135.211 132.000 C 134.751 132.000,134.271 132.270,134.145 132.600 C 133.997 132.986,133.378 133.200,132.412 133.200 C 131.371 133.200,130.616 133.489,129.955 134.141 C 129.430 134.659,128.595 135.295,128.100 135.555 C 127.605 135.815,127.200 136.272,127.200 136.571 C 127.200 136.869,126.750 137.226,126.200 137.364 C 125.510 137.537,125.198 137.892,125.194 138.508 C 125.190 139.116,125.085 139.238,124.864 138.891 C 124.429 138.204,123.324 139.425,123.136 140.800 C 123.061 141.350,122.775 141.800,122.500 141.800 C 122.225 141.800,121.982 141.980,121.961 142.200 C 121.939 142.420,121.769 142.884,121.583 143.231 C 121.398 143.578,121.203 144.793,121.151 145.931 C 121.083 147.424,120.896 148.000,120.480 148.000 C 120.008 148.000,119.995 148.111,120.408 148.609 C 120.837 149.126,120.799 149.175,120.157 148.934 C 119.508 148.691,119.473 148.740,119.910 149.278 C 120.328 149.793,120.316 149.947,119.841 150.129 C 119.212 150.370,119.415 152.000,120.075 152.000 C 120.285 152.000,120.401 152.495,120.333 153.100 C 120.253 153.812,120.384 154.165,120.704 154.100 C 121.051 154.030,121.200 154.666,121.200 156.213 C 121.200 157.767,121.371 158.491,121.775 158.646 C 122.091 158.767,122.249 159.129,122.126 159.449 C 121.993 159.794,122.109 159.985,122.409 159.916 C 122.692 159.851,123.076 160.392,123.280 161.143 C 123.497 161.942,123.961 162.569,124.423 162.690 C 124.850 162.802,125.222 163.052,125.250 163.247 C 125.278 163.441,125.322 163.825,125.350 164.100 C 125.378 164.375,125.625 164.623,125.900 164.650 C 126.175 164.678,126.584 164.722,126.809 164.750 C 127.033 164.778,127.422 165.250,127.673 165.800 C 127.923 166.350,128.460 166.800,128.864 166.800 C 129.269 166.800,129.600 166.999,129.600 167.243 C 129.600 167.497,129.893 167.573,130.288 167.422 C 130.666 167.276,130.849 167.284,130.694 167.439 C 129.996 168.138,131.964 168.775,134.856 168.787 C 137.441 168.798,137.903 168.901,137.856 169.457 C 137.825 169.818,138.070 170.192,138.400 170.287 C 138.933 170.442,138.933 170.414,138.400 170.037 C 137.916 169.695,138.014 169.611,138.900 169.606 C 139.505 169.603,140.000 169.780,140.000 170.000 C 140.000 170.485,140.891 170.353,141.279 169.811 C 141.432 169.596,141.342 169.284,141.079 169.117 C 140.815 168.949,142.085 168.809,143.900 168.806 C 146.267 168.802,147.202 168.659,147.206 168.300 C 147.211 167.940,147.294 167.928,147.506 168.256 C 147.721 168.589,147.932 168.570,148.288 168.185 C 148.673 167.771,148.673 167.622,148.288 167.484 C 147.521 167.210,148.122 166.834,149.493 166.729 C 150.182 166.677,150.736 166.536,150.725 166.417 C 150.647 165.558,150.931 165.130,151.800 164.800 C 152.412 164.567,152.800 164.106,152.800 163.610 C 152.800 163.055,153.063 162.800,153.637 162.800 C 154.149 162.800,154.559 162.477,154.692 161.969 C 154.812 161.512,155.335 160.977,155.855 160.779 C 156.773 160.430,157.032 159.535,156.815 157.466 C 156.773 157.062,157.067 156.356,157.469 155.897 C 157.871 155.438,157.975 155.194,157.700 155.355 C 157.384 155.540,157.200 155.404,157.200 154.986 C 157.200 154.623,157.575 154.227,158.034 154.107 C 158.668 153.941,158.740 153.808,158.334 153.551 C 157.973 153.322,157.954 153.210,158.274 153.206 C 158.610 153.202,158.711 152.294,158.620 150.100 C 158.510 147.467,158.388 147.009,157.809 147.062 C 157.324 147.106,157.184 146.903,157.326 146.362 C 157.435 145.943,157.383 145.600,157.210 145.600 C 157.036 145.600,156.884 144.867,156.872 143.971 C 156.848 142.253,156.270 141.200,155.351 141.200 C 155.048 141.200,154.800 140.853,154.800 140.429 C 154.800 140.005,154.326 139.285,153.746 138.829 C 153.166 138.373,152.846 138.000,153.035 138.000 C 153.224 138.000,152.975 137.718,152.482 137.373 C 151.990 137.028,151.709 136.547,151.859 136.305 C 152.033 136.024,151.897 135.954,151.486 136.112 C 151.011 136.294,150.906 136.189,151.088 135.714 C 151.244 135.307,151.175 135.168,150.902 135.337 C 150.217 135.760,148.288 134.869,148.529 134.242 C 148.744 133.681,147.021 133.214,144.700 133.204 C 143.918 133.201,143.602 132.997,143.606 132.500 C 143.611 131.896,143.670 131.882,144.037 132.400 C 144.414 132.933,144.443 132.933,144.297 132.400 C 144.207 132.070,143.968 131.797,143.767 131.794 C 143.565 131.791,143.147 131.628,142.838 131.432 C 142.429 131.173,142.364 131.219,142.600 131.600 C 142.836 131.982,142.772 132.027,142.362 131.765 C 141.661 131.318,137.601 131.283,137.600 131.724 C 137.600 131.902,137.375 131.907,137.100 131.735 C 136.366 131.276,135.561 131.213,135.822 131.635 M209.042 133.668 C 209.155 133.850,208.998 134.000,208.694 134.000 C 208.390 134.000,207.785 134.675,207.351 135.500 C 206.916 136.325,206.390 137.003,206.180 137.006 C 205.426 137.018,204.839 137.637,205.054 138.196 C 205.197 138.570,204.916 138.856,204.239 139.026 C 203.671 139.169,203.305 139.446,203.426 139.643 C 203.548 139.839,203.437 140.000,203.181 140.000 C 202.924 140.000,202.818 140.270,202.945 140.600 C 203.111 141.033,202.901 141.200,202.187 141.200 C 201.395 141.200,201.200 141.402,201.200 142.224 C 201.200 142.787,201.035 143.145,200.832 143.020 C 200.363 142.730,199.200 143.876,199.200 144.629 C 199.200 145.134,198.739 145.365,197.940 145.261 C 197.797 145.242,197.580 145.626,197.457 146.113 C 197.334 146.601,196.821 147.180,196.317 147.400 C 195.813 147.620,195.342 148.208,195.271 148.706 C 195.190 149.276,194.968 149.507,194.671 149.329 C 194.331 149.125,194.335 149.214,194.687 149.649 C 194.987 150.019,195.082 150.819,194.934 151.730 C 194.712 153.096,194.850 153.376,196.721 155.354 C 198.576 157.316,198.773 157.708,199.028 159.970 C 199.290 162.279,199.383 162.457,200.448 162.670 C 201.074 162.795,201.488 163.057,201.368 163.252 C 201.247 163.448,201.697 163.921,202.368 164.304 C 203.262 164.814,203.524 165.200,203.351 165.750 C 203.196 166.240,203.268 166.405,203.557 166.226 C 203.801 166.076,204.000 166.154,204.000 166.400 C 204.000 166.646,204.168 166.744,204.373 166.617 C 204.854 166.320,206.044 168.005,205.722 168.527 C 205.587 168.745,205.639 168.827,205.838 168.709 C 206.353 168.403,208.000 169.090,208.000 169.611 C 208.000 169.851,207.792 169.919,207.538 169.762 C 207.243 169.579,207.185 169.653,207.379 169.965 C 207.545 170.234,207.895 170.372,208.157 170.272 C 208.419 170.171,208.975 170.339,209.393 170.644 C 209.811 170.950,210.004 171.200,209.823 171.200 C 209.641 171.200,209.966 171.573,210.546 172.029 C 211.126 172.485,211.600 173.104,211.600 173.405 C 211.600 173.706,211.778 174.063,211.995 174.197 C 212.226 174.339,212.299 174.140,212.170 173.721 C 212.048 173.324,212.236 173.495,212.587 174.100 C 212.938 174.705,213.500 175.200,213.836 175.200 C 214.172 175.200,214.336 175.380,214.200 175.600 C 214.064 175.820,214.156 176.000,214.405 176.000 C 215.085 176.000,215.996 177.047,216.032 177.871 C 216.050 178.292,216.149 178.388,216.265 178.100 C 216.546 177.404,217.200 177.473,217.200 178.200 C 217.200 178.530,217.489 178.800,217.843 178.800 C 218.250 178.800,218.401 179.020,218.255 179.400 C 218.115 179.765,218.255 180.000,218.613 180.000 C 218.936 180.000,219.200 180.180,219.200 180.400 C 219.200 180.620,219.650 180.800,220.200 180.800 C 221.000 180.800,221.200 181.000,221.200 181.800 C 221.200 182.741,221.770 183.062,223.000 182.814 C 223.220 182.770,223.271 182.862,223.114 183.019 C 222.632 183.501,223.580 184.800,224.414 184.800 C 224.931 184.800,225.200 185.071,225.200 185.592 C 225.200 186.104,225.554 186.474,226.200 186.636 C 226.821 186.792,227.200 187.170,227.200 187.636 C 227.200 188.094,227.575 188.479,228.165 188.627 C 228.740 188.771,229.229 189.260,229.373 189.835 C 229.527 190.449,229.904 190.800,230.408 190.800 C 230.937 190.800,231.200 191.069,231.200 191.610 C 231.200 192.188,231.540 192.488,232.384 192.657 C 233.036 192.787,233.554 193.008,233.537 193.147 C 233.431 193.995,233.669 194.459,234.122 194.285 C 234.411 194.174,235.055 194.687,235.569 195.437 C 236.078 196.180,236.666 196.683,236.875 196.554 C 237.083 196.425,237.353 196.698,237.474 197.160 C 237.594 197.622,237.863 198.000,238.070 198.000 C 238.278 198.000,238.333 198.184,238.194 198.410 C 238.055 198.635,238.089 198.794,238.270 198.763 C 239.270 198.589,239.677 198.862,239.489 199.581 C 239.339 200.157,239.562 200.463,240.342 200.749 C 241.321 201.108,240.750 201.445,239.500 201.247 C 239.335 201.221,239.200 201.661,239.200 202.224 C 239.200 202.787,239.035 203.145,238.832 203.020 C 238.363 202.730,237.200 203.876,237.200 204.629 C 237.200 204.943,236.843 205.200,236.408 205.200 C 235.904 205.200,235.527 205.551,235.374 206.162 C 235.241 206.691,234.774 207.218,234.336 207.333 C 233.899 207.447,233.447 207.897,233.333 208.333 C 233.219 208.769,232.765 209.221,232.323 209.336 C 231.881 209.452,231.618 209.705,231.738 209.900 C 231.859 210.095,231.583 210.512,231.125 210.827 C 230.667 211.142,230.092 211.635,229.846 211.922 C 229.601 212.209,228.923 212.962,228.340 213.595 C 227.757 214.228,227.377 214.843,227.495 214.962 C 227.614 215.081,227.236 215.358,226.655 215.579 C 226.075 215.800,225.600 216.190,225.600 216.447 C 225.600 217.030,223.118 219.439,222.670 219.290 C 222.489 219.229,222.442 219.344,222.566 219.545 C 222.842 219.992,221.830 220.897,221.463 220.530 C 221.222 220.289,221.039 220.979,221.153 221.700 C 221.179 221.865,220.962 222.000,220.670 222.000 C 220.379 222.000,219.794 222.655,219.370 223.455 C 218.947 224.255,218.420 224.900,218.200 224.889 C 217.511 224.853,216.838 225.634,217.060 226.212 C 217.196 226.567,216.900 226.860,216.239 227.026 C 215.671 227.169,215.305 227.446,215.426 227.643 C 215.548 227.839,215.437 228.000,215.181 228.000 C 214.924 228.000,214.818 228.270,214.945 228.600 C 215.111 229.033,214.901 229.200,214.187 229.200 C 213.395 229.200,213.200 229.402,213.200 230.224 C 213.200 230.787,213.035 231.145,212.832 231.020 C 212.363 230.730,211.200 231.876,211.200 232.629 C 211.200 233.134,210.739 233.365,209.940 233.261 C 209.797 233.242,209.574 233.649,209.444 234.166 C 209.315 234.682,208.833 235.203,208.375 235.323 C 207.916 235.442,207.447 235.897,207.333 236.333 C 207.219 236.769,206.765 237.221,206.323 237.336 C 205.881 237.452,205.638 237.738,205.783 237.973 C 205.928 238.208,205.893 238.400,205.705 238.400 C 205.517 238.400,205.155 239.615,204.902 241.100 C 204.571 243.038,204.210 243.955,203.621 244.349 C 203.169 244.651,202.800 245.139,202.800 245.435 C 202.800 246.086,201.558 246.800,200.426 246.800 C 199.972 246.800,199.600 246.989,199.600 247.220 C 199.600 247.675,197.135 248.825,195.971 248.912 C 195.577 248.942,195.345 249.112,195.455 249.290 C 195.565 249.467,195.868 249.486,196.128 249.330 C 196.476 249.121,196.488 249.197,196.171 249.623 C 195.935 249.940,195.718 250.648,195.688 251.195 C 195.648 251.962,195.722 252.053,196.012 251.595 C 196.377 251.017,196.445 251.078,196.550 252.075 C 196.578 252.336,197.185 252.701,197.900 252.886 C 198.813 253.123,199.200 253.458,199.200 254.011 C 199.200 254.445,199.399 254.800,199.642 254.800 C 199.886 254.800,200.439 255.250,200.871 255.800 C 201.304 256.350,201.984 256.800,202.382 256.800 C 202.781 256.800,203.204 257.173,203.324 257.630 C 203.443 258.086,203.914 258.557,204.370 258.676 C 204.917 258.819,205.200 259.218,205.200 259.847 C 205.200 260.597,205.413 260.800,206.200 260.800 C 206.930 260.800,207.200 261.014,207.200 261.592 C 207.200 262.101,207.553 262.473,208.186 262.632 C 208.728 262.768,209.283 263.232,209.420 263.663 C 209.557 264.093,210.104 264.612,210.637 264.814 C 211.170 265.017,211.560 265.405,211.503 265.677 C 211.446 265.948,211.805 266.355,212.300 266.580 C 212.795 266.805,213.200 267.288,213.200 267.652 C 213.200 268.470,214.005 268.800,216.000 268.800 C 217.930 268.800,218.800 268.473,218.800 267.747 C 218.800 267.435,219.250 267.009,219.800 266.800 C 220.412 266.567,220.800 266.106,220.800 265.610 C 220.800 265.072,221.063 264.800,221.586 264.800 C 222.389 264.800,223.375 263.508,222.919 263.053 C 222.780 262.914,223.147 262.800,223.733 262.800 C 224.475 262.800,224.800 262.591,224.800 262.113 C 224.800 261.735,225.217 261.060,225.728 260.613 C 226.238 260.166,226.777 259.474,226.925 259.075 C 227.073 258.676,227.363 258.454,227.570 258.581 C 227.900 258.786,228.572 258.144,228.597 257.600 C 228.619 257.113,229.908 255.671,231.100 254.800 C 231.815 254.277,232.400 253.613,232.400 253.325 C 232.400 253.036,232.591 252.800,232.824 252.800 C 233.057 252.800,233.136 252.620,233.000 252.400 C 232.864 252.180,232.943 252.000,233.176 252.000 C 233.409 252.000,233.600 252.187,233.600 252.416 C 233.600 252.655,233.835 252.613,234.156 252.316 C 234.559 251.942,234.586 251.718,234.256 251.500 C 233.690 251.128,234.761 250.328,235.343 250.688 C 235.552 250.818,235.603 250.728,235.455 250.489 C 235.308 250.251,235.373 249.940,235.600 249.800 C 235.827 249.660,235.921 249.396,235.809 249.215 C 235.697 249.034,236.053 248.773,236.600 248.636 C 237.148 248.498,237.575 248.254,237.550 248.093 C 237.436 247.349,237.637 246.800,238.024 246.800 C 238.257 246.800,238.316 247.025,238.155 247.300 C 237.994 247.575,238.234 247.475,238.688 247.077 C 239.243 246.591,239.439 246.067,239.287 245.477 C 239.079 244.667,239.120 244.645,239.831 245.187 C 240.254 245.510,240.476 245.625,240.324 245.444 C 240.034 245.098,240.409 244.521,241.900 243.016 C 242.395 242.517,242.800 241.814,242.800 241.454 C 242.800 241.012,243.146 240.800,243.867 240.800 C 244.453 240.800,244.820 240.686,244.681 240.547 C 244.290 240.156,245.158 238.800,245.800 238.800 C 246.442 238.800,247.310 237.444,246.919 237.053 C 246.780 236.914,247.050 236.800,247.519 236.800 C 248.374 236.800,249.394 235.527,248.919 235.053 C 248.780 234.914,249.147 234.800,249.733 234.800 C 250.478 234.800,250.804 234.589,250.812 234.100 C 250.825 233.322,252.993 230.760,253.730 230.651 C 253.988 230.613,254.261 230.406,254.336 230.191 C 254.750 229.004,255.836 227.654,257.038 226.830 C 257.787 226.317,258.400 225.650,258.400 225.348 C 258.400 225.047,258.591 224.800,258.824 224.800 C 259.057 224.800,259.136 224.620,259.000 224.400 C 258.864 224.180,258.943 224.000,259.176 224.000 C 259.409 224.000,259.600 224.187,259.600 224.416 C 259.600 224.655,259.835 224.613,260.156 224.316 C 260.560 223.941,260.587 223.716,260.256 223.493 C 259.939 223.279,260.013 223.060,260.500 222.773 C 260.885 222.546,261.200 222.001,261.200 221.563 C 261.200 221.124,261.425 220.794,261.700 220.830 C 262.717 220.962,263.240 220.789,263.000 220.400 C 262.864 220.180,262.954 220.000,263.200 220.000 C 263.446 220.000,263.533 219.816,263.394 219.590 C 263.255 219.365,263.289 219.206,263.470 219.237 C 264.320 219.385,264.800 219.147,264.800 218.576 C 264.800 218.233,264.963 218.054,265.163 218.177 C 265.362 218.300,265.421 217.996,265.293 217.501 C 265.079 216.667,265.118 216.644,265.831 217.187 C 266.254 217.510,266.476 217.625,266.324 217.444 C 266.034 217.098,266.409 216.521,267.900 215.016 C 268.395 214.517,268.800 213.814,268.800 213.454 C 268.800 213.023,269.141 212.800,269.800 212.800 C 270.350 212.800,270.779 212.665,270.753 212.500 C 270.617 211.640,270.903 211.193,271.900 210.705 C 272.516 210.403,272.976 209.865,272.944 209.483 C 272.910 209.065,273.176 208.800,273.630 208.800 C 274.400 208.800,275.362 207.496,274.919 207.053 C 274.780 206.914,275.147 206.800,275.733 206.800 C 276.478 206.800,276.804 206.589,276.812 206.100 C 276.826 205.235,279.029 202.754,279.897 202.627 C 280.247 202.576,280.590 202.278,280.659 201.967 C 281.463 198.342,281.485 197.942,280.911 197.368 C 280.587 197.045,280.424 196.514,280.549 196.190 C 280.709 195.772,280.498 195.600,279.827 195.600 C 279.133 195.600,278.766 195.278,278.460 194.400 C 278.230 193.740,277.762 193.200,277.421 193.200 C 277.079 193.200,276.800 192.930,276.800 192.600 C 276.800 192.270,276.564 192.000,276.275 192.000 C 275.987 192.000,275.376 191.651,274.918 191.224 C 274.460 190.797,273.976 190.557,273.843 190.691 C 273.709 190.824,273.600 190.738,273.600 190.500 C 273.600 190.262,273.825 189.976,274.100 189.865 C 274.375 189.754,274.208 189.649,273.729 189.632 C 273.249 189.614,272.596 189.339,272.276 189.019 C 271.957 188.700,271.574 188.559,271.426 188.707 C 271.279 188.855,271.270 188.682,271.408 188.324 C 271.641 187.716,270.835 187.157,269.845 187.239 C 269.264 187.287,268.802 186.246,269.274 185.954 C 269.512 185.807,269.159 185.567,268.491 185.420 C 267.651 185.236,267.199 184.851,267.030 184.176 C 266.895 183.639,266.589 183.200,266.350 183.200 C 266.111 183.200,265.561 182.750,265.129 182.200 C 264.696 181.650,263.995 181.200,263.571 181.200 C 262.893 181.200,262.585 180.561,262.753 179.500 C 262.779 179.335,262.356 179.200,261.813 179.200 C 261.095 179.200,260.889 179.034,261.057 178.595 C 261.218 178.176,260.910 177.857,260.061 177.561 C 259.385 177.326,258.726 176.797,258.596 176.387 C 258.466 175.977,258.008 175.530,257.580 175.394 C 257.151 175.257,256.800 174.884,256.800 174.564 C 256.800 174.245,256.350 173.778,255.800 173.527 C 255.250 173.277,254.800 172.740,254.800 172.336 C 254.800 171.674,254.365 171.414,253.493 171.555 C 253.323 171.583,252.986 171.168,252.742 170.633 C 252.499 170.099,251.853 169.550,251.308 169.413 C 250.567 169.227,250.368 168.966,250.521 168.382 C 250.716 167.635,250.403 167.427,249.300 167.570 C 249.025 167.606,248.800 167.433,248.800 167.186 C 248.800 166.825,245.790 163.608,245.484 163.642 C 244.784 163.721,243.974 162.944,244.130 162.344 C 244.238 161.934,244.196 161.679,244.038 161.777 C 243.880 161.874,243.221 161.606,242.575 161.180 C 241.929 160.754,241.575 160.404,241.789 160.403 C 242.003 160.401,241.733 160.086,241.189 159.703 C 240.645 159.320,240.076 159.046,239.925 159.095 C 239.773 159.144,239.715 158.840,239.796 158.421 C 239.934 157.702,237.986 156.547,237.483 157.050 C 237.382 157.151,237.192 156.957,237.062 156.617 C 236.929 156.271,237.039 155.994,237.313 155.987 C 237.583 155.980,237.471 155.725,237.061 155.415 C 236.655 155.107,236.062 154.955,235.745 155.077 C 235.427 155.198,235.203 155.141,235.247 154.949 C 235.419 154.200,234.676 153.200,233.949 153.200 C 233.523 153.200,232.983 152.762,232.733 152.213 C 232.485 151.669,232.137 151.315,231.959 151.426 C 231.780 151.536,231.352 151.080,231.007 150.413 C 230.662 149.746,230.114 149.200,229.790 149.200 C 229.465 149.200,229.200 148.921,229.200 148.579 C 229.200 148.238,228.685 147.779,228.055 147.559 C 227.425 147.340,226.709 146.719,226.464 146.180 C 226.218 145.641,225.743 145.200,225.409 145.200 C 225.074 145.200,224.800 144.935,224.800 144.610 C 224.800 144.286,224.245 143.734,223.568 143.383 C 222.793 142.983,222.416 142.535,222.553 142.177 C 222.695 141.809,222.423 141.521,221.786 141.361 C 221.244 141.225,220.800 140.878,220.800 140.590 C 220.800 140.302,220.252 139.827,219.582 139.534 C 218.735 139.163,218.419 138.787,218.544 138.300 C 218.644 137.915,218.517 137.579,218.263 137.554 C 218.008 137.528,217.530 137.483,217.200 137.454 C 216.864 137.424,216.652 137.092,216.718 136.700 C 216.827 136.049,216.355 135.793,215.400 135.986 C 215.180 136.030,215.123 135.943,215.274 135.793 C 215.608 135.458,213.921 133.636,213.500 133.876 C 213.335 133.970,213.200 133.847,213.200 133.603 C 213.200 133.321,212.404 133.191,211.018 133.247 C 209.818 133.296,208.929 133.485,209.042 133.668 M49.100 139.960 C 48.055 141.013,47.200 142.183,47.200 142.561 C 47.200 142.938,47.035 143.145,46.832 143.020 C 46.377 142.738,45.200 143.867,45.200 144.585 C 45.200 144.876,44.750 145.226,44.200 145.364 C 43.569 145.523,43.200 145.898,43.200 146.381 C 43.200 146.802,42.830 147.264,42.377 147.407 C 41.924 147.551,41.389 148.103,41.187 148.634 C 40.966 149.216,40.498 149.600,40.010 149.600 C 39.413 149.600,39.200 149.863,39.200 150.600 C 39.200 151.150,39.065 151.579,38.900 151.553 C 38.089 151.425,37.689 151.686,37.263 152.623 C 37.006 153.185,36.613 153.532,36.388 153.393 C 36.164 153.254,36.030 153.379,36.090 153.670 C 36.151 153.962,35.962 154.151,35.670 154.090 C 35.379 154.030,35.255 154.166,35.396 154.393 C 35.536 154.620,35.350 154.921,34.982 155.062 C 34.311 155.320,34.355 158.689,35.068 161.528 C 35.204 162.068,35.334 162.883,35.357 163.338 C 35.381 163.804,35.751 164.259,36.205 164.382 C 37.349 164.691,39.626 166.834,39.327 167.318 C 39.189 167.541,39.265 167.607,39.496 167.464 C 39.727 167.321,40.035 167.514,40.180 167.891 C 40.405 168.479,40.496 168.493,40.815 167.989 C 41.110 167.523,41.189 167.589,41.194 168.300 C 41.198 168.846,41.445 169.200,41.824 169.200 C 42.167 169.200,42.336 169.380,42.200 169.600 C 42.064 169.820,42.156 170.000,42.405 170.000 C 43.085 170.000,43.996 171.047,44.032 171.871 C 44.050 172.292,44.149 172.388,44.265 172.100 C 44.546 171.404,45.200 171.473,45.200 172.200 C 45.200 172.530,45.549 172.800,45.976 172.800 C 46.403 172.800,46.883 173.011,47.042 173.268 C 47.235 173.580,47.116 173.653,46.686 173.488 C 46.234 173.315,46.107 173.413,46.262 173.818 C 46.384 174.136,46.645 174.296,46.842 174.174 C 47.039 174.052,47.200 174.143,47.200 174.376 C 47.200 174.609,47.650 174.800,48.200 174.800 C 48.988 174.800,49.200 175.003,49.200 175.757 C 49.200 176.431,49.481 176.784,50.152 176.952 C 50.676 177.084,51.199 177.553,51.315 177.996 C 51.441 178.478,51.860 178.800,52.363 178.800 C 52.931 178.800,53.200 179.055,53.200 179.592 C 53.200 180.104,53.554 180.474,54.200 180.636 C 54.821 180.792,55.200 181.170,55.200 181.636 C 55.200 182.094,55.575 182.479,56.165 182.627 C 56.740 182.771,57.229 183.260,57.373 183.835 C 57.527 184.449,57.904 184.800,58.408 184.800 C 58.937 184.800,59.200 185.069,59.200 185.610 C 59.200 186.189,59.540 186.488,60.394 186.659 C 61.050 186.790,61.499 187.039,61.392 187.213 C 61.049 187.768,61.647 188.757,62.199 188.545 C 62.492 188.433,63.136 188.887,63.630 189.555 C 64.123 190.222,64.666 190.683,64.835 190.578 C 65.144 190.387,65.827 191.941,65.679 192.500 C 65.636 192.665,66.030 192.800,66.556 192.800 C 67.215 192.800,67.494 193.014,67.456 193.490 C 67.425 193.869,67.670 194.202,68.000 194.229 C 69.489 194.351,69.718 194.416,69.486 194.648 C 69.350 194.784,69.501 195.158,69.823 195.480 C 70.144 195.801,70.305 196.230,70.180 196.432 C 70.055 196.635,70.143 196.800,70.376 196.800 C 70.609 196.800,70.805 196.575,70.812 196.300 C 70.826 195.740,71.768 197.173,71.799 197.800 C 71.809 198.020,72.174 198.138,72.609 198.062 C 73.044 197.986,73.266 198.060,73.102 198.226 C 72.939 198.393,73.209 198.730,73.702 198.976 C 74.196 199.222,74.600 199.677,74.600 199.986 C 74.600 200.296,75.185 200.701,75.900 200.886 C 76.813 201.123,77.200 201.458,77.200 202.011 C 77.200 202.445,77.399 202.800,77.642 202.800 C 77.886 202.800,78.439 203.250,78.871 203.800 C 79.304 204.350,80.005 204.800,80.429 204.800 C 81.560 204.800,81.515 207.046,80.377 207.407 C 79.924 207.551,79.389 208.103,79.187 208.634 C 78.966 209.216,78.498 209.600,78.010 209.600 C 77.413 209.600,77.200 209.863,77.200 210.600 C 77.200 211.150,77.065 211.579,76.900 211.553 C 76.089 211.425,75.689 211.686,75.263 212.623 C 75.006 213.185,74.613 213.532,74.388 213.393 C 74.164 213.254,74.030 213.379,74.090 213.670 C 74.151 213.962,73.975 214.155,73.700 214.100 C 73.425 214.045,73.221 214.135,73.247 214.300 C 73.378 215.129,73.140 215.600,72.590 215.600 C 72.255 215.600,71.809 216.050,71.600 216.600 C 71.391 217.150,71.035 217.600,70.810 217.600 C 70.584 217.600,70.445 217.735,70.500 217.900 C 70.555 218.065,70.436 218.229,70.236 218.264 C 70.036 218.299,69.710 218.618,69.511 218.973 C 69.313 219.327,68.954 219.495,68.714 219.347 C 68.473 219.198,68.378 219.241,68.503 219.443 C 68.627 219.644,68.475 220.156,68.165 220.581 C 67.801 221.077,67.600 221.159,67.600 220.810 C 67.600 220.124,67.169 220.526,67.053 221.321 C 66.919 222.233,65.108 223.940,64.516 223.712 C 64.193 223.588,63.822 223.991,63.556 224.755 C 63.288 225.523,62.946 225.893,62.661 225.723 C 62.378 225.553,62.397 225.689,62.710 226.077 C 63.130 226.595,63.112 226.748,62.610 226.941 C 62.274 227.070,61.988 226.956,61.973 226.687 C 61.958 226.419,61.735 226.650,61.477 227.200 C 61.220 227.750,60.602 228.528,60.104 228.929 C 59.607 229.330,59.200 230.016,59.200 230.453 C 59.200 230.890,59.035 231.145,58.832 231.020 C 58.377 230.738,57.200 231.867,57.200 232.585 C 57.200 232.876,56.750 233.226,56.200 233.364 C 55.569 233.523,55.200 233.898,55.200 234.381 C 55.200 234.802,54.830 235.264,54.377 235.407 C 53.924 235.551,53.389 236.103,53.187 236.634 C 52.966 237.216,52.498 237.600,52.010 237.600 C 51.476 237.600,51.200 237.864,51.200 238.373 C 51.200 238.798,50.849 239.257,50.420 239.394 C 49.992 239.530,49.530 239.992,49.394 240.420 C 49.257 240.849,48.978 241.222,48.773 241.250 C 48.568 241.278,48.175 241.322,47.900 241.350 C 47.625 241.378,47.377 241.625,47.350 241.900 C 47.323 242.175,47.278 242.670,47.250 243.000 C 47.223 243.330,46.926 243.600,46.590 243.600 C 46.255 243.600,45.809 244.050,45.600 244.600 C 45.391 245.150,45.035 245.600,44.810 245.600 C 44.584 245.600,44.445 245.735,44.500 245.900 C 44.555 246.065,44.436 246.229,44.236 246.264 C 44.036 246.299,43.710 246.618,43.511 246.973 C 43.313 247.327,42.977 247.510,42.766 247.379 C 42.554 247.248,42.413 247.289,42.454 247.470 C 42.627 248.251,41.895 249.276,41.550 248.734 C 41.326 248.379,41.210 248.636,41.206 249.500 C 41.203 250.215,41.230 250.845,41.268 250.900 C 41.680 251.511,40.165 252.800,39.035 252.800 C 37.698 252.800,36.547 253.614,37.100 254.167 C 37.261 254.328,37.077 254.637,36.691 254.853 C 36.064 255.204,36.054 255.311,36.594 255.852 C 36.927 256.185,37.200 256.984,37.200 257.629 C 37.200 258.273,37.335 258.779,37.500 258.753 C 38.543 258.588,39.145 258.926,39.364 259.800 C 39.526 260.446,39.896 260.800,40.408 260.800 C 40.931 260.800,41.200 261.069,41.200 261.592 C 41.200 262.105,41.555 262.474,42.203 262.637 C 42.812 262.789,43.301 263.265,43.447 263.844 C 43.594 264.431,43.979 264.800,44.443 264.800 C 44.933 264.800,45.200 265.082,45.200 265.600 C 45.200 266.313,45.833 266.623,46.917 266.442 C 47.091 266.413,47.451 266.886,47.717 267.494 C 47.983 268.102,48.470 268.600,48.800 268.600 C 49.133 268.600,49.400 268.956,49.401 269.400 C 49.401 269.840,49.640 270.200,49.933 270.200 C 50.225 270.200,50.693 270.512,50.972 270.894 C 51.251 271.275,51.596 271.470,51.740 271.327 C 51.978 271.088,52.161 271.782,52.047 272.500 C 52.021 272.665,52.180 272.800,52.400 272.800 C 52.620 272.800,52.815 272.575,52.833 272.300 C 52.851 272.025,53.121 272.385,53.434 273.100 C 54.036 274.478,54.522 274.879,54.160 273.700 C 54.011 273.217,54.108 273.261,54.472 273.842 C 55.286 275.140,58.943 275.004,59.132 273.669 C 59.220 273.045,59.456 272.813,59.847 272.963 C 60.183 273.092,60.540 272.893,60.689 272.493 C 60.831 272.112,61.286 271.557,61.699 271.260 C 62.112 270.962,62.615 270.287,62.815 269.760 C 63.016 269.232,63.426 268.800,63.726 268.800 C 64.026 268.800,64.477 268.350,64.727 267.800 C 65.138 266.899,65.621 266.614,66.500 266.753 C 66.665 266.779,66.800 266.434,66.800 265.987 C 66.800 265.541,67.115 265.057,67.500 264.912 C 68.348 264.594,69.200 263.524,68.941 263.104 C 68.837 262.937,69.213 262.800,69.776 262.800 C 70.527 262.800,70.800 262.591,70.800 262.014 C 70.800 261.582,71.169 261.031,71.619 260.790 C 72.070 260.549,72.609 259.901,72.818 259.352 C 73.027 258.802,73.358 258.451,73.554 258.572 C 73.749 258.692,74.132 258.523,74.404 258.196 C 74.676 257.868,74.764 257.600,74.600 257.600 C 74.436 257.600,74.528 257.328,74.804 256.995 C 75.081 256.662,75.598 256.437,75.953 256.495 C 76.410 256.569,76.565 256.345,76.481 255.735 C 76.372 254.946,76.950 254.221,77.700 254.206 C 77.865 254.203,78.013 254.020,78.029 253.800 C 78.076 253.133,79.325 251.955,79.571 252.346 C 79.697 252.547,80.032 252.461,80.316 252.156 C 80.613 251.835,80.655 251.600,80.416 251.600 C 80.187 251.600,80.000 251.420,80.000 251.200 C 80.000 250.980,80.332 250.800,80.738 250.800 C 81.467 250.800,83.262 249.212,82.562 249.187 C 82.363 249.179,82.560 248.856,83.000 248.467 C 83.933 247.643,84.724 246.498,85.064 245.477 C 85.202 245.065,85.546 244.847,85.868 244.971 C 86.181 245.091,86.545 244.879,86.689 244.493 C 86.831 244.112,87.286 243.557,87.699 243.260 C 88.112 242.962,88.615 242.287,88.815 241.760 C 89.016 241.232,89.426 240.800,89.726 240.800 C 90.026 240.800,90.477 240.350,90.727 239.800 C 91.138 238.899,91.621 238.614,92.500 238.753 C 92.665 238.779,92.800 238.434,92.800 237.987 C 92.800 237.541,93.115 237.057,93.500 236.912 C 94.348 236.594,95.200 235.524,94.941 235.104 C 94.770 234.827,95.722 234.622,96.530 234.763 C 96.711 234.794,96.745 234.635,96.606 234.409 C 96.466 234.183,96.876 233.504,97.516 232.899 C 98.156 232.295,98.801 231.459,98.949 231.043 C 99.097 230.626,99.333 230.400,99.473 230.539 C 99.818 230.884,100.844 229.994,100.584 229.575 C 100.365 229.219,101.554 228.438,102.160 228.539 C 102.358 228.573,102.587 228.161,102.669 227.624 C 102.839 226.510,103.071 226.200,103.733 226.200 C 103.990 226.200,104.200 225.932,104.200 225.605 C 104.200 225.278,104.547 224.944,104.972 224.862 C 105.748 224.713,106.800 223.874,106.800 223.405 C 106.800 223.266,106.620 223.264,106.400 223.400 C 106.180 223.536,106.000 223.457,106.000 223.224 C 106.000 222.991,106.332 222.800,106.738 222.800 C 107.467 222.800,109.262 221.212,108.562 221.187 C 108.363 221.179,108.560 220.856,109.000 220.467 C 109.933 219.643,110.724 218.498,111.064 217.477 C 111.202 217.065,111.546 216.847,111.868 216.971 C 112.181 217.091,112.545 216.879,112.689 216.493 C 112.831 216.112,113.286 215.557,113.699 215.260 C 114.112 214.962,114.615 214.287,114.815 213.760 C 115.016 213.232,115.426 212.800,115.726 212.800 C 116.026 212.800,116.477 212.350,116.727 211.800 C 117.138 210.899,117.621 210.614,118.500 210.753 C 118.665 210.779,118.800 210.436,118.800 209.990 C 118.800 209.494,119.188 209.033,119.800 208.800 C 120.695 208.460,120.862 208.212,120.775 207.349 C 120.761 207.212,121.166 206.891,121.675 206.638 C 122.710 206.122,122.997 204.561,122.119 204.224 C 121.806 204.104,121.664 203.820,121.804 203.593 C 121.945 203.366,121.825 203.230,121.539 203.290 C 121.253 203.351,120.959 203.012,120.887 202.538 C 120.808 202.025,120.369 201.578,119.804 201.437 C 119.281 201.305,118.742 200.848,118.606 200.420 C 118.470 199.991,118.008 199.530,117.580 199.394 C 117.151 199.257,116.800 198.909,116.800 198.619 C 116.800 198.329,116.350 197.797,115.800 197.437 C 115.250 197.076,114.800 196.516,114.800 196.191 C 114.800 195.656,114.318 195.421,113.493 195.555 C 113.323 195.583,112.986 195.168,112.742 194.633 C 112.499 194.099,111.865 193.552,111.333 193.419 C 110.802 193.286,110.458 193.029,110.570 192.849 C 110.681 192.668,110.329 192.283,109.786 191.993 C 109.244 191.702,108.800 191.125,108.800 190.709 C 108.800 190.293,108.620 190.064,108.400 190.200 C 108.180 190.336,108.000 190.269,108.000 190.051 C 108.000 189.832,107.640 189.540,107.200 189.400 C 106.725 189.249,106.398 188.791,106.394 188.273 C 106.389 187.563,106.315 187.512,106.000 188.000 C 105.771 188.355,105.610 188.407,105.606 188.127 C 105.603 187.867,105.244 187.541,104.808 187.403 C 104.373 187.264,104.041 187.027,104.072 186.876 C 104.182 186.328,103.504 185.200,103.057 185.187 C 102.806 185.180,102.240 184.886,101.800 184.533 C 101.150 184.013,101.131 183.938,101.700 184.134 C 102.085 184.266,102.400 184.286,102.400 184.178 C 102.400 183.936,100.308 183.049,99.925 183.127 C 99.773 183.158,99.715 182.840,99.796 182.421 C 99.902 181.872,99.614 181.544,98.771 181.250 C 98.127 181.025,97.597 180.967,97.594 181.121 C 97.591 181.274,97.420 181.135,97.215 180.811 C 96.969 180.422,97.005 180.120,97.321 179.923 C 97.617 179.738,97.316 179.526,96.532 179.368 C 95.641 179.189,95.194 178.829,95.025 178.156 C 94.893 177.630,94.589 177.200,94.350 177.200 C 94.111 177.200,93.561 176.750,93.129 176.200 C 92.696 175.650,92.114 175.200,91.835 175.200 C 91.556 175.200,91.123 174.750,90.873 174.200 C 90.622 173.650,90.143 173.200,89.809 173.200 C 89.474 173.200,89.200 172.921,89.200 172.579 C 89.200 172.238,88.667 171.773,88.016 171.546 C 87.365 171.319,86.726 170.797,86.596 170.387 C 86.466 169.977,86.008 169.530,85.580 169.394 C 85.151 169.257,84.800 168.893,84.800 168.583 C 84.800 168.274,84.245 167.734,83.568 167.383 C 82.793 166.983,82.416 166.535,82.553 166.177 C 82.695 165.809,82.423 165.521,81.786 165.361 C 81.244 165.225,80.800 164.853,80.800 164.536 C 80.800 164.218,80.245 163.765,79.567 163.528 C 78.645 163.207,78.383 162.909,78.529 162.349 C 78.637 161.937,78.517 161.579,78.263 161.554 C 78.008 161.528,77.530 161.483,77.200 161.454 C 76.850 161.422,76.653 161.092,76.727 160.660 C 76.796 160.253,76.680 160.027,76.469 160.158 C 76.257 160.288,75.981 160.126,75.854 159.798 C 75.728 159.469,75.339 159.200,74.989 159.200 C 74.639 159.200,74.464 159.020,74.600 158.800 C 74.736 158.580,74.556 158.400,74.200 158.400 C 73.844 158.400,73.652 158.239,73.774 158.043 C 73.895 157.846,73.527 157.568,72.955 157.425 C 72.170 157.228,71.966 156.972,72.121 156.381 C 72.233 155.951,72.196 155.679,72.038 155.777 C 71.710 155.979,69.513 154.630,69.745 154.370 C 69.829 154.276,69.532 153.840,69.087 153.400 C 68.642 152.960,68.423 152.853,68.600 153.162 C 68.817 153.539,68.772 153.630,68.462 153.438 C 68.208 153.281,68.000 152.924,68.000 152.644 C 68.000 152.364,67.550 151.894,67.000 151.600 C 66.450 151.306,66.000 150.815,66.000 150.509 C 66.000 150.203,65.819 150.065,65.597 150.202 C 65.376 150.339,65.086 150.169,64.954 149.825 C 64.822 149.481,64.377 149.200,63.965 149.200 C 63.499 149.200,63.120 148.822,62.965 148.203 C 62.827 147.654,62.588 147.284,62.434 147.379 C 62.279 147.475,61.715 147.024,61.181 146.377 C 60.646 145.729,59.904 145.200,59.532 145.200 C 59.135 145.200,58.803 144.828,58.728 144.300 C 58.658 143.805,58.369 143.400,58.087 143.400 C 57.804 143.400,57.350 142.950,57.077 142.400 C 56.804 141.850,56.177 141.342,55.684 141.271 C 55.191 141.201,54.882 140.990,54.998 140.804 C 55.349 140.235,54.006 139.200,52.916 139.200 C 52.350 139.200,51.688 138.940,51.444 138.622 C 51.076 138.143,50.676 138.371,49.100 139.960 " stroke="none" fill="#4fafd1" fill-rule="evenodd"></path><path id="path20" d="" stroke="none" fill="#33bbdd" fill-rule="evenodd"></path><path id="path21" d="M193.509 150.780 C 193.755 153.472,194.044 154.094,196.007 156.170 C 197.090 157.315,198.262 158.871,198.610 159.626 C 199.058 160.596,199.180 160.706,199.027 160.000 C 198.908 159.450,198.808 158.674,198.805 158.276 C 198.802 157.878,197.891 156.591,196.780 155.416 C 194.821 153.345,194.765 153.220,194.942 151.320 C 195.109 149.517,195.054 149.360,194.252 149.360 C 193.495 149.360,193.396 149.548,193.509 150.780 M33.200 155.667 C 33.200 155.850,33.335 156.001,33.500 156.003 C 33.665 156.005,33.834 156.860,33.876 157.903 C 33.917 158.946,34.229 160.520,34.568 161.400 L 35.184 163.000 34.967 161.200 C 34.847 160.210,34.684 159.040,34.605 158.600 C 34.526 158.160,34.447 157.245,34.431 156.567 C 34.404 155.489,33.200 154.608,33.200 155.667 M204.628 240.281 C 204.073 242.598,201.565 245.627,199.322 246.689 C 198.155 247.241,197.200 247.853,197.200 248.047 C 197.200 248.241,196.885 248.414,196.500 248.432 C 196.115 248.449,196.008 248.548,196.263 248.653 C 196.890 248.909,199.600 247.746,199.600 247.220 C 199.600 246.989,199.972 246.800,200.426 246.800 C 201.581 246.800,202.800 246.081,202.800 245.400 C 202.800 245.085,203.147 244.642,203.571 244.415 C 204.079 244.144,204.502 243.238,204.806 241.770 C 205.276 239.508,205.122 238.221,204.628 240.281 M39.800 252.000 C 39.161 252.706,39.152 252.800,39.724 252.800 C 40.080 252.800,40.565 252.440,40.800 252.000 C 41.035 251.560,41.070 251.200,40.876 251.200 C 40.682 251.200,40.198 251.560,39.800 252.000 " stroke="none" fill="#59b8db" fill-rule="evenodd"></path><path id="path22" d="" stroke="none" fill="#1cc6c6" fill-rule="evenodd"></path><path id="path23" d="M141.091 244.689 C 141.801 244.777,143.061 244.779,143.891 244.692 C 144.721 244.605,144.140 244.533,142.600 244.531 C 141.060 244.529,140.381 244.600,141.091 244.689 " stroke="none" fill="#6db6ff" fill-rule="evenodd"></path><path id="path24" d="M193.264 151.320 C 193.187 153.628,193.791 154.880,196.005 157.000 C 196.924 157.880,197.843 159.030,198.049 159.555 C 198.254 160.081,198.522 160.411,198.644 160.290 C 199.022 159.912,197.971 158.287,195.964 156.144 C 194.043 154.094,193.745 153.454,193.472 150.800 C 193.356 149.676,193.315 149.778,193.264 151.320 M33.467 156.267 C 32.950 156.783,33.268 159.419,34.039 161.000 C 34.468 161.880,34.713 162.240,34.584 161.801 C 33.959 159.675,33.550 157.108,33.751 156.584 C 33.992 155.954,33.892 155.842,33.467 156.267 M168.217 189.172 C 167.944 189.614,168.575 190.092,168.944 189.722 C 169.325 189.342,169.254 188.800,168.824 188.800 C 168.617 188.800,168.344 188.968,168.217 189.172 M203.794 241.214 C 203.394 242.101,202.167 243.741,201.067 244.858 C 199.385 246.567,199.259 246.790,200.270 246.267 C 201.493 245.635,204.118 242.132,204.592 240.500 C 205.006 239.077,204.589 239.450,203.794 241.214 M196.900 247.596 C 195.493 248.454,195.174 248.937,196.300 248.508 C 196.971 248.252,198.738 246.798,198.375 246.801 C 198.279 246.802,197.615 247.160,196.900 247.596 M40.432 250.374 C 40.414 250.690,40.000 251.410,39.511 251.974 L 38.623 253.000 39.759 251.943 C 40.384 251.362,40.798 250.642,40.679 250.343 C 40.505 249.905,40.457 249.911,40.432 250.374 " stroke="none" fill="#55c6ff" fill-rule="evenodd"></path><path id="path25" d="" stroke="none" fill="#46d1ff" fill-rule="evenodd"></path><path id="path26" d="M192.292 150.037 C 191.880 150.276,191.708 150.649,191.881 150.925 C 192.046 151.186,192.238 151.825,192.309 152.344 C 192.493 153.678,193.474 155.120,195.616 157.200 C 196.635 158.190,197.595 159.270,197.750 159.600 C 198.547 161.301,199.189 162.166,199.194 161.549 C 199.197 161.191,198.930 160.674,198.600 160.400 C 198.270 160.126,198.000 159.692,198.000 159.434 C 198.000 159.177,197.176 158.164,196.168 157.183 C 194.136 155.206,193.200 153.685,193.200 152.364 C 193.200 151.882,192.885 151.249,192.500 150.957 C 191.833 150.451,191.833 150.425,192.500 150.413 C 192.885 150.406,193.200 150.220,193.200 150.000 C 193.200 149.517,193.183 149.518,192.292 150.037 M166.455 152.533 C 166.121 152.936,166.154 153.067,166.589 153.067 C 166.906 153.067,167.258 152.827,167.370 152.533 C 167.483 152.240,167.423 152.000,167.236 152.000 C 167.050 152.000,166.699 152.240,166.455 152.533 M165.881 159.053 C 165.477 159.456,166.395 160.850,166.871 160.556 C 167.150 160.384,167.069 160.158,166.643 159.920 C 166.280 159.717,166.088 159.382,166.215 159.175 C 166.478 158.750,166.263 158.671,165.881 159.053 M33.200 159.953 C 33.200 160.496,34.325 162.800,34.590 162.800 C 34.761 162.800,33.649 159.940,33.358 159.633 C 33.271 159.542,33.200 159.686,33.200 159.953 M200.000 169.600 C 199.532 169.903,199.520 169.989,199.947 169.994 C 200.311 169.998,200.430 170.329,200.304 170.988 C 200.201 171.531,200.272 171.879,200.462 171.762 C 200.700 171.615,200.849 169.110,200.615 169.206 C 200.607 169.209,200.330 169.387,200.000 169.600 M36.000 179.600 C 35.532 179.903,35.520 179.989,35.947 179.994 C 36.311 179.998,36.430 180.329,36.304 180.988 C 36.201 181.531,36.272 181.879,36.462 181.762 C 36.700 181.615,36.849 179.110,36.615 179.206 C 36.607 179.209,36.330 179.387,36.000 179.600 M167.892 187.042 C 167.449 187.484,167.543 188.483,168.000 188.200 C 168.220 188.064,168.400 188.143,168.400 188.376 C 168.400 189.160,169.029 188.809,169.091 187.991 C 169.124 187.547,168.998 187.278,168.810 187.394 C 168.622 187.510,168.404 187.413,168.326 187.177 C 168.247 186.942,168.052 186.881,167.892 187.042 M1.934 195.551 C 2.228 195.737,2.439 196.045,2.404 196.235 C 2.369 196.425,2.523 196.641,2.747 196.716 C 2.971 196.790,3.126 196.480,3.092 196.026 C 3.051 195.480,2.754 195.202,2.215 195.206 C 1.615 195.211,1.541 195.302,1.934 195.551 M36.800 204.302 C 36.800 204.522,37.070 204.926,37.400 205.200 C 37.735 205.478,38.000 205.521,38.000 205.298 C 38.000 205.078,37.730 204.674,37.400 204.400 C 37.065 204.122,36.800 204.079,36.800 204.302 M202.893 218.000 C 202.893 218.770,202.975 219.085,203.076 218.700 C 203.176 218.315,203.176 217.685,203.076 217.300 C 202.975 216.915,202.893 217.230,202.893 218.000 M38.893 228.000 C 38.893 228.770,38.975 229.085,39.076 228.700 C 39.176 228.315,39.176 227.685,39.076 227.300 C 38.975 226.915,38.893 227.230,38.893 228.000 M204.300 239.232 C 203.915 239.456,203.600 239.984,203.600 240.404 C 203.600 240.825,203.276 241.491,202.880 241.884 C 202.484 242.278,201.866 243.070,201.507 243.644 C 201.148 244.218,199.987 245.273,198.927 245.986 C 197.724 246.797,197.376 247.173,198.000 246.987 C 200.014 246.389,202.217 244.117,204.098 240.700 C 204.673 239.655,205.111 238.805,205.072 238.812 C 205.032 238.819,204.685 239.008,204.300 239.232 M125.632 242.284 C 125.614 242.551,125.876 243.001,126.214 243.284 C 126.552 243.568,127.092 244.038,127.414 244.329 C 127.745 244.627,128.000 244.677,128.000 244.443 C 128.000 244.215,127.635 243.833,127.189 243.594 C 126.743 243.355,126.500 242.961,126.651 242.718 C 126.808 242.464,126.742 242.389,126.496 242.541 C 126.261 242.686,125.977 242.579,125.866 242.302 C 125.715 241.929,125.655 241.925,125.632 242.284 M171.659 242.355 C 171.271 242.601,171.227 242.911,171.505 243.449 C 171.718 243.862,171.803 244.450,171.694 244.756 C 171.573 245.095,171.672 245.203,171.948 245.032 C 172.534 244.670,172.536 243.200,171.951 243.200 C 171.641 243.200,171.656 243.015,172.000 242.600 C 172.560 241.925,172.456 241.850,171.659 242.355 M140.162 243.400 C 140.260 244.101,140.592 244.205,142.837 244.237 C 145.193 244.271,145.224 244.261,143.227 244.113 C 141.794 244.008,140.883 243.723,140.552 243.277 C 140.094 242.659,140.060 242.670,140.162 243.400 M145.455 243.400 C 145.582 243.730,145.734 244.000,145.794 244.000 C 145.853 244.000,146.126 243.730,146.400 243.400 C 146.816 242.899,146.760 242.800,146.062 242.800 C 145.482 242.800,145.296 242.985,145.455 243.400 M39.922 250.688 C 39.635 251.287,38.950 252.004,38.400 252.282 C 37.791 252.591,37.646 252.791,38.030 252.794 C 38.729 252.801,40.144 251.387,40.528 250.300 C 40.911 249.214,40.504 249.475,39.922 250.688 M32.800 253.200 C 32.800 253.446,32.622 253.537,32.405 253.403 C 32.178 253.263,32.111 253.423,32.247 253.779 C 32.378 254.121,32.627 254.400,32.800 254.400 C 33.296 254.400,33.607 253.252,33.183 252.989 C 32.972 252.859,32.800 252.954,32.800 253.200 " stroke="none" fill="#62d8ff" fill-rule="evenodd"></path><path id="path27" d="M192.400 150.768 C 192.400 150.978,189.163 151.161,184.900 151.194 C 180.775 151.225,175.870 151.264,174.000 151.280 C 172.130 151.296,170.375 151.486,170.100 151.703 C 169.825 151.920,169.600 151.935,169.600 151.736 C 169.600 151.537,169.106 151.395,168.502 151.422 C 167.705 151.457,167.403 151.679,167.402 152.234 C 167.401 152.654,167.175 153.021,166.900 153.049 C 166.625 153.077,166.190 153.123,165.933 153.150 C 165.677 153.178,165.585 153.318,165.730 153.463 C 165.875 153.608,165.770 154.003,165.497 154.340 C 165.090 154.843,165.101 154.892,165.562 154.615 C 165.976 154.365,166.034 154.421,165.784 154.826 C 165.410 155.431,165.252 157.951,165.589 157.923 C 166.336 157.860,166.515 158.067,166.000 158.400 C 165.600 158.658,165.567 158.790,165.900 158.794 C 166.175 158.797,166.400 159.055,166.400 159.367 C 166.400 159.678,166.569 159.993,166.775 160.067 C 166.994 160.144,167.202 165.389,167.275 172.662 C 167.344 179.516,167.523 185.048,167.672 184.955 C 167.822 184.863,168.058 184.970,168.196 185.193 C 168.334 185.417,168.246 185.600,168.000 185.600 C 167.754 185.600,167.664 185.780,167.800 186.000 C 167.936 186.220,167.846 186.400,167.600 186.400 C 167.354 186.400,167.266 186.583,167.404 186.807 C 167.542 187.030,167.823 187.109,168.028 186.983 C 168.232 186.856,168.400 186.954,168.400 187.200 C 168.400 187.446,168.580 187.536,168.800 187.400 C 169.166 187.174,169.339 194.553,169.249 206.573 C 169.234 208.612,169.411 210.372,169.660 210.673 C 169.906 210.969,169.931 211.200,169.716 211.200 C 169.276 211.200,169.293 212.379,169.743 213.107 C 169.910 213.378,169.895 213.600,169.709 213.600 C 169.523 213.600,169.371 213.960,169.371 214.400 C 169.371 214.840,169.507 215.200,169.673 215.200 C 169.839 215.200,169.871 215.472,169.743 215.805 C 169.571 216.254,169.693 216.339,170.221 216.137 C 170.719 215.945,170.842 216.009,170.631 216.350 C 170.466 216.617,170.516 217.057,170.741 217.329 C 170.993 217.632,171.186 221.837,171.240 228.212 C 171.288 233.925,171.466 238.982,171.635 239.449 C 171.817 239.954,171.759 240.481,171.491 240.749 C 171.156 241.084,171.177 241.200,171.569 241.200 C 171.997 241.200,172.002 241.316,171.592 241.809 C 171.170 242.318,171.194 242.377,171.743 242.166 C 172.398 241.915,172.610 242.645,172.421 244.500 C 172.382 244.885,172.541 245.200,172.775 245.200 C 173.009 245.200,173.200 245.380,173.200 245.600 C 173.200 245.820,173.065 245.955,172.900 245.900 C 172.735 245.845,172.600 245.980,172.600 246.200 C 172.600 246.420,172.735 246.555,172.900 246.500 C 173.065 246.445,173.200 246.948,173.200 247.617 L 173.200 248.833 184.200 248.777 C 192.389 248.734,195.200 248.598,195.200 248.245 C 195.200 247.984,195.589 247.741,196.064 247.705 C 196.539 247.669,197.034 247.496,197.164 247.319 C 197.294 247.142,198.187 246.464,199.148 245.811 C 200.110 245.158,201.181 244.169,201.528 243.612 C 201.875 243.055,202.484 242.278,202.880 241.884 C 203.276 241.491,203.600 240.856,203.600 240.473 C 203.600 240.091,203.943 239.484,204.363 239.125 C 205.150 238.450,205.159 238.202,204.686 229.400 C 204.639 228.520,204.420 227.668,204.200 227.506 C 203.941 227.316,203.952 227.210,204.233 227.206 C 204.472 227.203,204.667 226.930,204.667 226.600 C 204.667 225.972,204.187 225.785,203.899 226.300 C 203.807 226.465,203.781 226.388,203.842 226.129 C 203.903 225.870,203.738 225.481,203.476 225.263 C 203.131 224.977,203.000 222.106,203.000 214.834 C 203.000 209.315,202.910 204.800,202.800 204.800 C 202.690 204.800,202.623 203.273,202.652 201.406 C 202.689 198.989,202.574 198.085,202.252 198.265 C 201.972 198.422,201.984 198.318,202.286 197.993 C 202.669 197.579,202.628 197.336,202.086 196.834 C 201.218 196.032,200.649 185.373,200.785 172.478 C 200.790 171.971,200.618 171.665,200.402 171.799 C 200.186 171.932,200.092 171.807,200.193 171.521 C 200.643 170.247,200.714 168.800,200.327 168.800 C 200.096 168.800,200.001 168.440,200.116 168.000 C 200.231 167.561,200.159 167.098,199.956 166.973 C 199.753 166.847,199.679 166.596,199.791 166.414 C 199.904 166.233,199.742 165.987,199.432 165.868 C 199.032 165.714,198.927 165.211,199.069 164.126 C 199.364 161.869,198.332 159.811,195.566 157.138 C 192.775 154.441,191.436 151.791,192.631 151.333 C 193.280 151.084,193.404 150.400,192.800 150.400 C 192.580 150.400,192.400 150.566,192.400 150.768 M26.225 156.189 C 26.359 156.944,26.333 156.951,25.841 156.300 C 25.121 155.347,24.836 155.421,25.072 156.500 C 25.231 157.223,25.185 157.282,24.841 156.800 C 24.478 156.292,24.411 156.289,24.406 156.776 C 24.402 157.196,24.228 157.142,23.767 156.576 C 23.261 155.955,23.177 155.934,23.345 156.473 C 23.537 157.090,22.770 157.153,14.277 157.222 C 9.175 157.264,4.190 157.335,3.200 157.381 C -0.298 157.544,0.000 157.132,0.000 161.800 C 0.000 165.523,0.080 166.003,0.700 166.028 C 1.299 166.052,1.284 166.106,0.600 166.400 C -0.084 166.694,-0.099 166.748,0.500 166.772 C 1.410 166.808,1.410 167.887,0.500 168.124 C -0.167 168.298,-0.167 168.309,0.500 168.354 C 1.135 168.396,1.203 169.005,1.228 174.900 C 1.273 185.622,1.398 189.531,1.703 189.837 C 1.863 189.996,1.793 190.368,1.548 190.663 C 1.301 190.960,1.273 191.200,1.484 191.200 C 1.695 191.200,1.867 191.462,1.867 191.782 C 1.867 192.103,1.717 192.272,1.533 192.159 C 1.350 192.045,1.200 192.133,1.200 192.353 C 1.200 192.573,1.397 192.875,1.638 193.023 C 1.878 193.172,1.993 193.724,1.892 194.250 C 1.753 194.980,1.828 195.109,2.208 194.793 C 3.041 194.102,3.140 195.060,3.202 204.458 C 3.273 215.333,3.384 218.317,3.729 218.662 C 3.874 218.808,3.793 219.168,3.548 219.463 C 3.213 219.866,3.234 220.000,3.631 220.000 C 4.031 220.000,4.047 220.113,3.699 220.461 C 3.368 220.792,3.357 221.145,3.659 221.710 C 3.961 222.275,3.956 222.420,3.640 222.225 C 2.830 221.724,3.202 222.589,4.207 223.542 C 5.189 224.473,5.200 224.563,5.228 231.542 C 5.279 244.476,5.405 248.595,5.766 249.162 C 6.012 249.549,5.980 249.635,5.662 249.438 C 5.408 249.281,5.200 249.333,5.200 249.553 C 5.200 249.773,5.399 250.076,5.643 250.226 C 5.951 250.417,5.921 250.604,5.543 250.844 C 5.119 251.113,5.113 251.189,5.518 251.194 C 5.802 251.197,5.982 251.515,5.918 251.900 C 5.837 252.377,6.023 252.563,6.500 252.482 C 6.885 252.418,7.200 252.563,7.200 252.806 C 7.200 253.049,7.032 253.144,6.828 253.017 C 5.921 252.457,6.114 253.582,7.027 254.181 C 8.266 254.992,29.595 255.042,29.606 254.233 C 29.609 253.995,29.771 254.051,29.966 254.358 C 30.253 254.812,30.503 254.736,31.293 253.958 C 32.473 252.798,33.827 252.431,33.467 253.370 C 33.334 253.716,33.399 254.000,33.613 254.000 C 33.826 254.000,34.000 253.730,34.000 253.400 C 34.000 252.962,34.458 252.798,35.700 252.794 C 39.269 252.782,40.853 250.785,41.009 246.100 C 41.063 244.505,40.983 243.200,40.833 243.200 C 40.682 243.200,40.594 242.216,40.638 241.014 C 40.681 239.811,40.601 238.843,40.458 238.861 C 39.702 238.959,39.470 238.743,39.983 238.419 C 40.607 238.024,40.904 236.000,40.338 236.000 C 40.152 236.000,40.000 235.809,40.000 235.576 C 40.000 235.343,40.180 235.264,40.400 235.400 C 41.012 235.778,40.876 234.961,40.239 234.432 C 39.808 234.075,39.632 234.086,39.480 234.483 C 39.215 235.174,39.203 234.852,39.094 224.100 C 39.042 218.985,38.910 214.800,38.800 214.800 C 38.690 214.801,38.635 213.266,38.677 211.391 C 38.734 208.843,38.633 208.054,38.277 208.268 C 37.919 208.482,37.921 208.404,38.285 207.954 C 38.676 207.470,38.623 207.249,38.006 206.804 C 37.586 206.502,37.334 206.107,37.445 205.927 C 37.556 205.747,37.506 205.375,37.333 205.100 C 37.093 204.720,36.733 189.747,36.788 182.478 C 36.792 181.971,36.618 181.665,36.402 181.799 C 36.186 181.932,36.092 181.807,36.193 181.521 C 36.631 180.280,36.715 178.800,36.348 178.800 C 36.129 178.800,36.002 178.485,36.065 178.100 C 36.128 177.715,36.039 177.175,35.866 176.900 C 35.694 176.625,35.698 176.397,35.876 176.394 C 36.054 176.391,35.940 176.224,35.623 176.023 C 35.167 175.734,35.031 174.372,34.972 169.529 C 34.906 164.135,34.798 163.232,34.071 162.000 C 33.492 161.019,33.219 159.791,33.159 157.900 C 33.093 155.808,32.400 153.730,32.400 155.624 C 32.400 155.857,32.210 155.930,31.977 155.786 C 31.284 155.357,29.600 155.281,29.600 155.679 C 29.600 155.881,29.380 155.911,29.112 155.746 C 27.979 155.046,26.073 155.339,26.225 156.189 M125.638 179.755 C 125.079 180.428,125.221 240.941,125.784 242.166 C 126.054 242.753,126.013 242.855,125.606 242.604 C 125.246 242.381,125.172 242.430,125.374 242.758 C 125.600 243.124,125.805 243.128,126.231 242.774 C 126.667 242.412,126.845 242.451,127.037 242.953 C 127.173 243.306,127.425 243.508,127.596 243.402 C 127.768 243.296,128.006 243.580,128.125 244.034 C 128.307 244.733,128.469 244.791,129.170 244.416 C 129.810 244.074,130.001 244.090,130.006 244.486 C 130.011 244.874,130.087 244.883,130.317 244.521 C 130.517 244.205,130.822 244.169,131.211 244.415 C 132.272 245.086,136.852 244.882,137.395 244.139 C 137.778 243.616,137.945 243.587,138.201 244.001 C 138.428 244.369,138.368 244.428,138.000 244.200 C 137.632 243.972,137.572 244.031,137.799 244.399 C 138.051 244.807,138.240 244.760,138.661 244.184 C 138.957 243.779,139.200 243.661,139.200 243.924 C 139.200 244.186,139.391 244.400,139.624 244.400 C 139.857 244.400,139.936 244.220,139.800 244.000 C 139.664 243.780,139.754 243.600,140.000 243.600 C 140.246 243.600,140.336 243.420,140.200 243.200 C 140.039 242.940,142.197 242.800,146.381 242.800 L 152.809 242.800 152.760 212.100 C 152.733 195.215,152.569 180.950,152.395 180.400 C 152.222 179.850,152.056 179.670,152.028 180.000 C 151.984 180.499,151.911 180.489,151.589 179.938 C 151.142 179.173,128.400 178.887,128.400 179.647 C 128.400 179.877,128.094 179.864,127.626 179.614 C 126.596 179.063,126.188 179.092,125.638 179.755 M141.200 243.827 C 142.544 244.127,145.511 244.180,145.338 243.900 C 145.236 243.735,144.128 243.621,142.876 243.646 C 141.624 243.672,140.870 243.753,141.200 243.827 " stroke="none" fill="#7ddcff" fill-rule="evenodd"></path><path id="path28" d="M140.600 243.200 C 140.736 243.420,141.927 243.600,143.247 243.600 C 144.745 243.600,145.554 243.450,145.400 243.200 C 145.264 242.980,144.073 242.800,142.753 242.800 C 141.255 242.800,140.446 242.950,140.600 243.200 " stroke="none" fill="#70ebff" fill-rule="evenodd"></path><path id="path29" d="" stroke="none" fill="#33ffff" fill-rule="evenodd"></path><path id="path30" d="M210.138 132.520 C 209.732 132.996,209.670 133.180,210.000 132.927 C 210.746 132.357,211.254 132.347,211.909 132.891 C 212.293 133.209,212.359 133.159,212.178 132.688 C 211.786 131.666,210.925 131.595,210.138 132.520 M123.592 137.810 C 122.819 138.741,123.371 138.917,124.198 138.002 C 124.597 137.561,124.738 137.200,124.511 137.200 C 124.284 137.200,123.870 137.474,123.592 137.810 M119.970 146.697 C 119.263 147.496,119.226 147.605,119.832 147.096 C 120.290 146.712,120.755 146.489,120.866 146.599 C 120.976 146.710,121.067 146.530,121.067 146.200 C 121.067 145.430,121.105 145.413,119.970 146.697 M190.370 150.300 L 189.400 151.400 190.600 150.400 C 191.260 149.850,191.875 149.355,191.967 149.300 C 192.058 149.245,191.955 149.200,191.736 149.200 C 191.518 149.200,190.903 149.695,190.370 150.300 M0.000 169.600 C 0.000 169.820,0.270 170.000,0.600 170.000 C 0.930 170.000,1.200 169.820,1.200 169.600 C 1.200 169.380,0.930 169.200,0.600 169.200 C 0.270 169.200,0.000 169.380,0.000 169.600 M3.225 225.251 C 3.197 225.991,4.286 227.047,4.676 226.657 C 4.818 226.516,4.718 226.400,4.454 226.400 C 4.190 226.400,3.811 225.995,3.612 225.500 C 3.368 224.891,3.243 224.810,3.225 225.251 M171.688 247.192 C 171.960 247.628,172.452 248.088,172.782 248.214 C 173.112 248.341,172.949 247.984,172.421 247.422 C 171.269 246.197,171.017 246.117,171.688 247.192 " stroke="none" fill="#00ffff" fill-rule="evenodd"></path><path id="path31" d="M166.800 151.557 C 166.800 151.827,166.632 151.944,166.428 151.817 C 166.223 151.691,165.950 151.757,165.821 151.966 C 165.692 152.174,165.749 152.445,165.948 152.568 C 166.388 152.840,167.418 151.685,167.057 151.324 C 166.916 151.182,166.800 151.287,166.800 151.557 M0.000 168.800 C 0.000 169.020,0.270 169.200,0.600 169.200 C 0.930 169.200,1.200 169.020,1.200 168.800 C 1.200 168.580,0.930 168.400,0.600 168.400 C 0.270 168.400,0.000 168.580,0.000 168.800 M169.534 217.551 C 169.828 217.737,170.053 218.004,170.034 218.145 C 170.015 218.285,170.090 218.400,170.200 218.400 C 170.310 218.400,170.512 218.400,170.649 218.400 C 170.786 218.400,170.674 218.130,170.400 217.800 C 170.126 217.470,169.699 217.203,169.451 217.206 C 169.180 217.210,169.213 217.347,169.534 217.551 M3.853 225.405 C 3.594 226.081,4.059 226.459,4.675 226.074 C 4.980 225.882,4.955 225.655,4.592 225.318 C 4.184 224.939,4.025 224.958,3.853 225.405 M125.817 243.972 C 125.691 244.177,125.798 244.475,126.055 244.634 C 126.348 244.815,126.416 244.750,126.238 244.462 C 125.858 243.847,126.496 243.872,127.201 244.500 C 127.678 244.925,127.682 244.896,127.232 244.300 C 126.643 243.522,126.164 243.411,125.817 243.972 " stroke="none" fill="#55ffff" fill-rule="evenodd"></path></g></svg>